<svg viewBox="0 0 23 22" fill="none"
  xmlns="http://www.w3.org/2000/svg">
  <path fill-rule="evenodd" clip-rule="evenodd" d="M9.44944 5.08212C9.53324 5.164 9.59979 5.26161 9.64521 5.36925C9.69064 5.47689 9.71403 5.59242 9.71403 5.70912C9.71403 5.82582 9.69064 5.94135 9.64521 6.04899C9.59979 6.15663 9.53324 6.25424 9.44944 6.33612L7.40954 8.36012H12.3763C14.0228 8.36012 15.602 9.00912 16.7663 10.1643C17.9306 11.3196 18.5847 12.8864 18.5847 14.5201V16.2801C18.5877 16.3965 18.5668 16.5123 18.5234 16.6204C18.4799 16.7286 18.4146 16.8268 18.3317 16.9091C18.2487 16.9914 18.1497 17.0561 18.0407 17.0993C17.9317 17.1425 17.815 17.1631 17.6977 17.1601C17.4625 17.1601 17.2369 17.0674 17.0706 16.9024C16.9043 16.7373 16.8108 16.5135 16.8108 16.2801V14.5201C16.8108 13.3532 16.3436 12.234 15.512 11.4089C14.6803 10.5837 13.5524 10.1201 12.3763 10.1201H7.40954L9.44944 12.1441C9.57754 12.3136 9.63972 12.5232 9.62459 12.7345C9.60946 12.9458 9.51801 13.1446 9.36705 13.2944C9.21609 13.4442 9.01574 13.5349 8.80278 13.5499C8.58982 13.5649 8.37855 13.5032 8.20776 13.3761L4.63793 9.85612C4.47542 9.69162 4.3844 9.47046 4.3844 9.24012C4.3844 9.00978 4.47542 8.78862 4.63793 8.62412L8.20776 5.08212C8.37355 4.92088 8.59645 4.83057 8.8286 4.83057C9.06075 4.83057 9.28365 4.92088 9.44944 5.08212Z" fill="currentColor"/>
</svg>
