<svg viewBox="0 0 50 50" fill="none"
  xmlns="http://www.w3.org/2000/svg">
  <path d="M43.6199 27.2362C44.0346 27.0284 44.3833 26.7092 44.627 26.3145C44.8707 25.9198 44.9997 25.4651 44.9997 25.0012C44.9997 24.5373 44.8707 24.0826 44.627 23.6879C44.3833 23.2932 44.0346 22.9741 43.6199 22.7662L8.6199 5.26621C8.18593 5.04907 7.69814 4.96292 7.21605 5.01827C6.73395 5.07363 6.27839 5.26809 5.90492 5.57794C5.53146 5.88778 5.25625 6.29963 5.11286 6.76322C4.96947 7.22681 4.96409 7.72211 5.0974 8.18871L8.66989 20.6887C8.81933 21.2111 9.13491 21.6707 9.56886 21.9977C10.0028 22.3248 10.5315 22.5015 11.0749 22.5012H22.5024C23.1654 22.5012 23.8013 22.7646 24.2702 23.2334C24.739 23.7023 25.0024 24.3382 25.0024 25.0012C25.0024 25.6642 24.739 26.3001 24.2702 26.769C23.8013 27.2378 23.1654 27.5012 22.5024 27.5012H11.0749C10.5315 27.5009 10.0028 27.6777 9.56886 28.0047C9.13491 28.3317 8.81933 28.7913 8.66989 29.3137L5.0999 41.8137C4.96633 42.2802 4.97138 42.7754 5.11443 43.239C5.25749 43.7026 5.53236 44.1146 5.90553 44.4247C6.2787 44.7348 6.73404 44.9296 7.21602 44.9854C7.698 45.0411 8.18579 44.9554 8.6199 44.7387L43.6199 27.2387V27.2362Z" fill="currentColor"/>
</svg>
    