<svg viewBox="0 0 32 32" fill="currentColor" xmlns="http://www.w3.org/2000/svg">
<path d="M28.0913 5.13782H3.90873C1.75355 5.13782 0 6.89137 0 9.04655V22.9534C0 25.1086 1.75355 26.8622 3.90873 26.8622H28.0913C30.2464 26.8622 32 25.1086 32 22.9534V9.04697C32.0004 6.89137 30.2469 5.13782 28.0913 5.13782ZM26.1813 7.68782L16 14.2473L5.81868 7.68782H26.1813ZM28.0913 24.3126H3.90873C3.15945 24.3126 2.55 23.7027 2.55 22.9538V9.11922L15.2133 17.2622C15.2303 17.2729 15.2486 17.2801 15.266 17.2899C15.2843 17.3001 15.303 17.3098 15.3217 17.3192C15.4199 17.3698 15.521 17.4106 15.6243 17.4373C15.6349 17.4403 15.6455 17.4416 15.6562 17.4441C15.7697 17.4709 15.8844 17.4875 15.9992 17.4875C15.9996 17.4875 16 17.4875 16 17.4875C16.0009 17.4875 16.0013 17.4875 16.0017 17.4875C16.1165 17.4875 16.2312 17.4713 16.3447 17.4441C16.3553 17.4416 16.3659 17.4403 16.3766 17.4373C16.4798 17.4106 16.5806 17.3698 16.6792 17.3192C16.6979 17.3098 16.7166 17.3001 16.7348 17.2899C16.7523 17.2801 16.7705 17.2729 16.7875 17.2622L29.4508 9.11922V22.9534C29.4504 23.7027 28.8405 24.3126 28.0913 24.3126Z"/>
</svg>
