<svg fill="#DE4032" xmlns="http://www.w3.org/2000/svg" xmlns:xlink="http://www.w3.org/1999/xlink" viewBox="0 0 490 490" xml:space="preserve">
<path d="M245,0C109.69,0,0,109.689,0,245c0,135.31,109.69,245,245,245s245-109.69,245-245C490,109.689,380.31,0,245,0z    M245,459.375c-118.206,0-214.375-96.169-214.375-214.375c0-118.207,96.169-214.375,214.375-214.375   c118.207,0,214.375,96.168,214.375,214.375C459.375,363.206,363.207,459.375,245,459.375z"/>
<path d="M99.576,348.484h291.162V136.411H99.576V348.484z M316.384,232.342l43.729-27.361v83.02L316.384,232.342z M290.272,248.68   l54.35,69.178H146.039l54.152-68.912l45.004,27.939L290.272,248.68z M130.201,288.445v-82.949l43.809,27.198L130.201,288.445z    M360.113,167.036v1.822l-114.978,71.929l-114.934-71.337v-2.414H360.113z"/></svg>