<svg width="32" height="32" viewBox="0 0 32 32" fill="none" xmlns="http://www.w3.org/2000/svg">
<path d="M8.01062 19.3493C7.50929 19.3493 7.07195 19.264 6.69862 19.104C6.32529 18.944 6.01595 18.7093 5.78129 18.4213C5.53595 18.1333 5.35462 17.792 5.22662 17.3973C5.09862 17.0026 5.04529 16.5866 5.04529 16.128C5.04529 15.6693 5.10929 15.2426 5.22662 14.848C5.35462 14.4533 5.53595 14.1013 5.78129 13.8133C6.02662 13.5253 6.33595 13.2906 6.69862 13.12C7.06129 12.9493 7.50929 12.864 8.01062 12.864C8.51195 12.864 8.94929 12.9493 9.32262 13.12C9.69596 13.2906 10.0053 13.5146 10.2613 13.8133C10.5066 14.1013 10.688 14.4533 10.816 14.848C10.9333 15.2426 10.9973 15.6693 10.9973 16.128C10.9973 16.5866 10.9333 17.0026 10.816 17.3973C10.6986 17.792 10.5173 18.1333 10.2613 18.4213C10.016 18.7093 9.70662 18.944 9.32262 19.104C8.95995 19.2746 8.51195 19.3493 8.01062 19.3493ZM8.01062 18.0586C8.45862 18.0586 8.77862 17.888 8.97062 17.5573C9.16262 17.2266 9.25862 16.7466 9.25862 16.128C9.25862 15.5093 9.16262 15.0293 8.97062 14.6986C8.77862 14.368 8.45862 14.1973 8.01062 14.1973C7.57329 14.1973 7.25329 14.368 7.06129 14.6986C6.86929 15.0293 6.77329 15.5093 6.77329 16.128C6.77329 16.7466 6.86929 17.2266 7.06129 17.5573C7.25329 17.8986 7.57329 18.0586 8.01062 18.0586ZM13.536 16.512C13.088 16.384 12.736 16.192 12.4906 15.9466C12.2346 15.6906 12.1173 15.3173 12.1173 14.816C12.1173 14.208 12.3306 13.7386 12.768 13.3866C13.2053 13.0453 13.792 12.8746 14.5493 12.8746C14.8586 12.8746 15.168 12.9066 15.4666 12.96C15.7653 13.0133 16.0746 13.0986 16.384 13.216C16.3626 13.4186 16.3306 13.6426 16.2666 13.8666C16.2026 14.0906 16.128 14.2826 16.0426 14.4533C15.8506 14.3786 15.6373 14.304 15.4133 14.24C15.1786 14.176 14.9333 14.1546 14.688 14.1546C14.4213 14.1546 14.208 14.1973 14.0586 14.2826C13.9093 14.368 13.8346 14.496 13.8346 14.688C13.8346 14.8586 13.888 14.9866 13.9946 15.0613C14.1013 15.136 14.2506 15.2 14.4533 15.264L15.136 15.4666C15.36 15.5306 15.5626 15.6053 15.744 15.7013C15.9253 15.7973 16.0746 15.904 16.2026 16.0426C16.3306 16.1813 16.4266 16.3413 16.5013 16.544C16.576 16.7466 16.608 16.992 16.608 17.2693C16.608 17.568 16.544 17.8346 16.4266 18.0906C16.2986 18.3466 16.128 18.5706 15.8933 18.752C15.6586 18.944 15.3706 19.0826 15.04 19.2C14.7093 19.3066 14.3253 19.36 13.8986 19.36C13.7066 19.36 13.536 19.3493 13.376 19.3386C13.216 19.328 13.0666 19.3066 12.9173 19.2746C12.768 19.2426 12.6293 19.2106 12.48 19.168C12.3413 19.1253 12.1813 19.072 12.0106 19.008C12.0213 18.7946 12.064 18.5706 12.128 18.3573C12.192 18.1333 12.2666 17.92 12.3626 17.7173C12.6293 17.824 12.8746 17.8986 13.1093 17.952C13.344 18.0053 13.5893 18.0266 13.8453 18.0266C13.952 18.0266 14.08 18.016 14.208 17.9946C14.336 17.9733 14.464 17.9413 14.5706 17.888C14.6773 17.8346 14.7733 17.7706 14.848 17.6853C14.9226 17.6 14.9653 17.4933 14.9653 17.3546C14.9653 17.1626 14.912 17.024 14.7946 16.9386C14.6773 16.8533 14.5173 16.7786 14.3146 16.7146L13.536 16.512ZM17.728 13.024C18.016 12.9813 18.2933 12.9493 18.5813 12.9493C18.8586 12.9493 19.1466 12.9706 19.4346 13.024V16.2986C19.4346 16.6293 19.456 16.896 19.5093 17.1093C19.5626 17.3226 19.6373 17.4933 19.744 17.6106C19.8506 17.7386 19.9893 17.824 20.1493 17.8773C20.3093 17.9306 20.5013 17.952 20.7146 17.952C21.0133 17.952 21.2586 17.92 21.4613 17.8666V13.024C21.7493 12.9813 22.0266 12.9493 22.304 12.9493C22.5813 12.9493 22.8693 12.9706 23.1573 13.024V18.976C22.9013 19.0613 22.56 19.1466 22.144 19.232C21.728 19.3173 21.2906 19.36 20.832 19.36C20.4266 19.36 20.032 19.328 19.6586 19.264C19.2853 19.2 18.9546 19.0613 18.6666 18.8586C18.3786 18.656 18.1546 18.3466 17.9946 17.952C17.824 17.5573 17.7386 17.024 17.7386 16.3626V13.024H17.728ZM24.7573 19.2106C24.7146 18.912 24.6826 18.624 24.6826 18.336C24.6826 18.048 24.704 17.7493 24.7573 17.4506C25.056 17.408 25.344 17.376 25.632 17.376C25.92 17.376 26.2186 17.3973 26.5173 17.4506C26.56 17.7493 26.592 18.048 26.592 18.3253C26.592 18.624 26.5706 18.912 26.5173 19.2106C26.2186 19.2533 25.92 19.2853 25.6426 19.2853C25.344 19.2746 25.056 19.2533 24.7573 19.2106ZM24.7146 10.6026C25.024 10.56 25.3333 10.528 25.632 10.528C25.9413 10.528 26.2506 10.5493 26.5706 10.6026L26.4533 16.4586C26.176 16.5013 25.9093 16.5333 25.6533 16.5333C25.3866 16.5333 25.1093 16.512 24.8426 16.4586L24.7146 10.6026Z" fill="white"/>
<path d="M16 0C7.168 0 0 7.168 0 16C0 24.832 7.168 32 16 32C24.832 32 32 24.832 32 16C32 7.168 24.832 0 16 0ZM16 30.4C8.04267 30.4 1.6 23.9573 1.6 16C1.6 8.04267 8.04267 1.6 16 1.6C23.9573 1.6 30.4 8.04267 30.4 16C30.4 23.9573 23.9573 30.4 16 30.4Z" fill="white"/>
</svg>
