<svg viewBox="0 0 32 32" fill="none" xmlns="http://www.w3.org/2000/svg">
<path d="M3.73666 0.00327724C3.70386 0.0399439 3.7776 0.163011 3.97786 0.399944C4.10866 0.551144 4.1904 0.710344 4.28853 0.992477C4.362 1.20501 4.44826 1.41341 4.48093 1.45434C4.53 1.51968 4.53373 1.50368 4.53786 1.30741V1.09074L4.82853 1.49128C5.26986 2.10034 5.54386 2.42354 5.72773 2.55434C5.82186 2.61568 5.8792 2.67688 5.85466 2.68501C5.78933 2.70541 5.21666 2.39061 4.95093 2.18634C4.816 2.08408 4.6896 1.99821 4.66906 1.99821C4.64866 1.99821 4.5832 1.93674 4.526 1.86314C4.4728 1.78954 4.34626 1.67541 4.25226 1.61008C4.02333 1.45061 3.782 1.22168 3.72466 1.11141C3.684 1.02941 3.55733 0.976344 3.55733 1.04181C3.55733 1.10714 3.884 1.54448 4.13733 1.81421C4.914 2.64408 5.70746 3.05688 7.82906 3.71914C8.2788 3.85821 8.67533 3.99714 8.71213 4.02981C8.74493 4.05848 8.8104 4.08288 8.85533 4.08288C8.89613 4.08288 8.96133 4.10314 8.994 4.12354C9.0472 4.15621 9.04293 4.16488 8.9816 4.16488C8.93253 4.16488 8.91213 4.18888 8.92026 4.23794C8.93253 4.31154 9.13293 4.37728 9.5172 4.43048C9.6888 4.45501 9.7296 4.44701 9.7296 4.39794C9.7296 4.33261 9.61106 4.28728 9.43533 4.28728C9.37 4.28728 9.32093 4.26714 9.32093 4.24674C9.32093 4.22221 9.36226 4.21341 9.41533 4.22168C9.4644 4.23394 9.6356 4.26248 9.79093 4.29101C10.1589 4.35234 10.2616 4.39341 10.2616 4.47101C10.2616 4.55688 10.3717 4.59368 10.4452 4.53234C10.4861 4.49554 10.5065 4.49581 10.5065 4.52861C10.5065 4.55301 10.5267 4.57354 10.5471 4.57354C10.5716 4.57354 10.5884 4.54501 10.5884 4.51221C10.5884 4.43461 10.5472 4.43408 11.234 4.54048C11.6428 4.60181 11.794 4.64314 11.7327 4.66354C11.602 4.71261 11.6756 4.77794 11.8596 4.77794C11.9536 4.77794 12.0189 4.79834 12.0189 4.82288C12.0189 4.85968 12.1128 4.86368 12.3459 4.84728C12.5584 4.83088 12.6813 4.83488 12.6977 4.86354C12.714 4.88808 12.7835 4.90021 12.8571 4.88794C12.9265 4.87568 13.1185 4.89248 13.2739 4.92101C13.6827 4.99874 14.7823 5.06021 17.2432 5.14608C21.2205 5.28501 24.1192 5.58301 25.2067 5.96728C25.6889 6.13888 26.4167 6.50701 26.5516 6.64594C26.7641 6.87074 26.8292 7.05474 26.8047 7.35714C26.7924 7.50848 26.7924 7.64368 26.8047 7.65594C26.9233 7.77461 27.1853 7.54141 27.1853 7.31661C27.1853 7.27154 27.2705 7.16128 27.3809 7.06728C27.8223 6.67888 27.888 6.46194 27.8391 5.57474C27.8063 4.97794 27.7977 4.93714 27.5321 4.06234C27.1847 2.91768 27.1035 2.74194 26.6865 2.30048C26.196 1.78541 25.7501 1.49088 25.1409 1.28248C24.9939 1.23341 24.6831 1.11928 24.446 1.02928C24.1149 0.898611 23.8777 0.841277 23.3953 0.771811C22.7127 0.673677 21.2452 0.604344 20.7873 0.649277C20.6239 0.665677 19.9697 0.649277 19.2543 0.604344C18.4409 0.559411 17.9423 0.543011 17.8237 0.567411C17.7216 0.587944 17.5457 0.603944 17.4312 0.608077C17.2636 0.608077 17.1863 0.633011 17.0432 0.739277C16.8756 0.861944 16.7567 0.898477 16.2907 0.976211C15.5385 1.09888 15.052 1.19661 14.8476 1.26621C14.6881 1.32341 14.4267 1.36034 14.022 1.38488C12.9141 1.45434 12.2848 1.51181 12.1459 1.55688C12.0517 1.58541 11.6917 1.59341 11.0908 1.58114C10.3591 1.56474 10.1715 1.57314 10.1347 1.61808C10.0979 1.65888 10.114 1.67114 10.2121 1.67114C10.4533 1.67114 12.6079 1.83888 12.6283 1.85914C12.6488 1.87968 12.2643 1.86314 11.1647 1.79368C10.8416 1.77314 10.5557 1.76888 10.5353 1.78114C10.4576 1.83021 9.8768 1.82208 9.32093 1.76488C8.63426 1.69541 7.97226 1.58088 7.35906 1.42554C7.07293 1.35608 6.73746 1.30341 6.5004 1.29114C6.06306 1.27074 5.59666 1.11914 4.93853 0.788077C4.5052 0.571411 4.45666 0.563544 4.45666 0.739277V0.873677L4.32533 0.710744C4.25173 0.624877 4.16213 0.485544 4.12533 0.403811C4.05173 0.248477 3.77746 -0.0335228 3.73666 0.00327724ZM4.34786 4.25488C3.58826 4.29074 2.88946 4.88248 2.38786 5.93861C2.08946 6.57221 2.03653 6.81768 2.016 7.65994C1.99973 8.32208 2.0076 8.45728 2.1016 9.00914C2.302 10.1578 2.35493 10.2925 2.776 10.7053C3.2216 11.1469 4.32986 11.7519 4.9472 11.8909C5.15973 11.9359 5.40906 11.9933 5.49906 12.0178C5.8424 12.1037 6.3124 12.1358 7.48146 12.1522C8.6056 12.1726 8.6996 12.1689 8.8508 12.0953C8.95706 12.0422 9.18226 12.001 9.5052 11.9766C9.77493 11.9521 10.0605 11.9154 10.1383 11.8909C10.2159 11.8705 10.3837 11.8497 10.5063 11.8497C10.6331 11.8497 10.76 11.8254 10.7845 11.8009C10.8825 11.7029 11.3483 11.6005 11.7939 11.5759C12.0432 11.5637 12.2767 11.5395 12.3176 11.519C12.4524 11.4455 12.3869 11.4045 12.1663 11.429C12.0396 11.4413 11.9169 11.433 11.872 11.4085C11.8065 11.3675 11.8267 11.3638 11.982 11.3597C12.0841 11.3597 12.2845 11.3473 12.4276 11.3309C12.6483 11.3105 12.6732 11.2978 12.6119 11.2529C12.4607 11.1425 12.5915 11.1141 13.27 11.1141C13.8791 11.1141 14.0548 11.0854 13.8749 11.0159C13.8383 11.0037 13.6865 10.9871 13.5393 10.9871C13.3881 10.9831 13.3228 10.9713 13.3881 10.9671C13.4576 10.9591 13.6052 10.9302 13.7237 10.9098C13.8383 10.8851 14.5577 10.8566 15.3181 10.8485C16.0784 10.8403 16.7237 10.8319 16.7524 10.8278C16.7892 10.8278 16.7975 10.7991 16.7812 10.7459C16.7648 10.6886 16.7731 10.6646 16.818 10.6646C16.8507 10.6646 16.9287 10.5993 16.99 10.5215C17.1125 10.3622 17.1448 10.3699 17.198 10.5785L17.2349 10.7134L17.5292 10.7259C17.7623 10.7341 17.8403 10.7219 17.918 10.6646C17.9711 10.6238 18.0812 10.5786 18.1629 10.5622L18.3143 10.5334L18.2899 10.771C18.2653 10.963 18.2696 10.9998 18.3185 10.9834C18.3513 10.9711 18.4815 10.9383 18.6123 10.9097L18.8455 10.8647L18.7555 10.7461C18.6981 10.6806 18.592 10.6154 18.498 10.591L18.3348 10.5497L18.5799 10.5417C18.7133 10.5375 18.8469 10.5375 18.9804 10.5417C19.0663 10.5457 19.1317 10.5298 19.1317 10.5054C19.1317 10.4809 19.1075 10.4601 19.0829 10.4561C19.0543 10.4519 18.9643 10.4475 18.8867 10.4434C18.8091 10.4354 18.6781 10.3903 18.6004 10.3454C18.5228 10.2963 18.4248 10.2561 18.388 10.2561C18.3471 10.2561 18.3143 10.2351 18.3143 10.2147C18.3143 10.1861 18.4369 10.1741 18.6536 10.1822C18.9847 10.1945 18.9888 10.1943 19.0011 10.3047C19.0175 10.4314 19.0173 10.4314 19.1073 10.3947C19.1223 10.389 19.1347 10.3779 19.1422 10.3637C19.1497 10.3494 19.1518 10.3329 19.148 10.3173C19.1235 10.2519 19.1973 10.1982 19.2587 10.2391C19.2831 10.2514 19.3811 10.2678 19.4711 10.2759C19.6917 10.2882 20.7668 10.3742 21.0448 10.4029C21.1919 10.4191 21.2572 10.4438 21.2572 10.4847C21.2572 10.5542 21.3065 10.5579 21.3679 10.4966C21.4005 10.4639 21.5601 10.4686 21.9484 10.5054C22.4227 10.5503 22.484 10.5621 22.484 10.6315C22.484 10.6806 22.5124 10.7057 22.5779 10.7097C22.6269 10.7097 22.7987 10.7258 22.954 10.7422C23.1135 10.7586 23.2645 10.7663 23.2891 10.7542C23.3176 10.7459 23.4079 10.6237 23.4896 10.4847C23.6491 10.219 23.784 10.051 23.8372 10.051C23.8576 10.051 23.8612 10.0802 23.8491 10.1129C23.8327 10.1455 23.8451 10.1742 23.8696 10.1742C23.8983 10.1742 23.9147 10.2067 23.9065 10.2435C23.8984 10.2925 23.9349 10.3211 24.0291 10.3415C24.1803 10.3743 24.25 10.4191 24.1477 10.4191C24.1109 10.4191 24.0777 10.4435 24.0777 10.4722C24.0777 10.5009 24.3193 10.6034 24.6708 10.7178C25.0469 10.8445 25.2633 10.9342 25.2633 10.971C25.2633 11.0118 25.1367 10.9833 24.7852 10.8647C23.9513 10.5786 23.5879 10.5173 23.5879 10.6603C23.5879 10.7217 23.6529 10.7505 23.9679 10.8241C24.1721 10.8731 24.3681 10.9097 24.4009 10.9097C24.4295 10.9097 24.5073 10.9547 24.5728 11.0078C24.6381 11.0651 24.9648 11.1998 25.3245 11.3185C25.6885 11.4411 26.0116 11.5718 26.0771 11.6291C26.1424 11.6822 26.2569 11.7561 26.3345 11.7846C26.5921 11.895 26.9603 12.2258 27.2383 12.5978C27.6389 13.1374 27.6347 13.1171 27.4139 13.1171C27.3117 13.1171 27.0211 13.0886 26.7676 13.0558C26.5143 13.0231 26.1956 12.9943 26.0609 12.9902C25.7747 12.9821 23.4364 13.0273 22.5616 13.0559L21.9684 13.0765L21.8747 12.8759C21.8216 12.7655 21.6703 12.5695 21.5353 12.4346C21.3024 12.2057 21.2904 12.2013 21.2372 12.279C21.2045 12.3239 21.0815 12.4958 20.9629 12.6553L20.7467 12.9534L20.4811 12.9621C20.3339 12.9621 20.1821 12.9662 20.1455 12.9621C20.0555 12.9541 20.0517 13.0027 20.1335 13.1541L20.1904 13.2683L19.7736 13.2971C18.6371 13.3747 16.2256 13.6731 15.4163 13.8409C15.2363 13.8777 14.8559 13.9062 14.5125 13.9102C13.8992 13.9183 13.8421 13.9347 13.4539 14.1595C13.3843 14.1963 13.3309 14.2047 13.2819 14.1802C13.2369 14.1515 13.1961 14.1597 13.1675 14.1965C13.1225 14.2495 12.9755 14.2738 11.8963 14.3883C11.6592 14.4129 11.2629 14.4662 11.0096 14.507C10.568 14.5806 10.5431 14.5806 10.3101 14.507C10.0648 14.4294 9.30053 14.327 8.6464 14.2821L8.2784 14.2533L8.06213 14.4495C7.93946 14.5558 7.77146 14.7398 7.68146 14.8583C7.5588 15.0259 7.49346 15.0797 7.41586 15.0797C7.24826 15.0797 5.75613 15.3121 4.6728 15.5083C3.50373 15.7209 3.06253 15.7622 2.7192 15.6926C2.36346 15.6191 2.35906 15.6149 2.37546 15.1651C2.39173 14.785 2.38786 14.773 2.28973 14.7239C2.06493 14.6095 1.8484 14.6745 1.55413 14.9402C1.4848 15.0015 1.40306 15.0302 1.28853 15.0302C1.19453 15.0262 1.0228 15.071 0.887996 15.1365L0.646663 15.2471L0.658663 15.4595C0.666663 15.5739 0.654396 15.7086 0.629863 15.7495C0.597196 15.7986 0.589063 16.0154 0.605463 16.3751C0.621863 16.8125 0.609463 16.9719 0.552396 17.1845L0.483063 17.4463L0.679196 17.7245C1.0716 18.2763 1.34986 18.697 1.34986 18.7418C1.34986 18.7665 1.472 18.8977 1.6272 19.0325C2.30186 19.6253 2.58813 19.7847 3.2504 19.9238C3.95346 20.075 4.06786 20.0667 4.50533 19.8338C4.7056 19.7234 4.9388 19.5718 5.02466 19.4901C5.13093 19.3919 5.4336 19.2326 6.014 18.975C6.91746 18.5745 7.03146 18.5294 7.03146 18.5826C7.03146 18.5989 7.0888 19.1506 7.1584 19.8006C7.30146 21.1659 7.34653 22.4742 7.2852 23.4799C7.23613 24.2689 7.19933 24.379 6.64333 25.4254C5.7808 27.0483 4.7468 28.6183 3.966 29.489C3.82693 29.6485 3.61453 29.9223 3.496 30.1022C3.2712 30.4414 2.854 30.8955 2.33466 31.3615C2.15906 31.5209 2.0444 31.6557 2.05666 31.6883C2.06893 31.721 2.19613 31.7862 2.3392 31.8353C2.47813 31.8883 2.6128 31.9459 2.63733 31.9665C2.70266 32.0318 2.78413 32.0069 3.08666 31.8433L3.38093 31.6802L3.49973 31.7621C3.6428 31.8561 3.90053 31.8638 4.1172 31.7821C4.20306 31.7494 4.3748 31.7127 4.5016 31.7046C4.75493 31.6801 4.9184 31.6109 5.184 31.4065C5.28213 31.3329 5.40893 31.2634 5.47026 31.2471C5.58893 31.2226 6.61493 30.1837 7.1628 29.5297C7.3344 29.3294 7.7636 28.8757 8.12333 28.5241C8.62613 28.0254 8.85093 27.8377 9.13706 27.6659C9.54986 27.4206 9.8768 27.1225 9.9176 26.9466C9.934 26.8853 9.98693 26.7582 10.0401 26.6642C10.1668 26.4475 10.31 25.8919 10.2732 25.7529C10.2609 25.6957 10.1996 25.5569 10.1383 25.4422C10.032 25.2542 10.0243 25.1887 10.0039 24.6654C9.96706 23.7457 9.81986 23.2634 9.35386 22.5399C9.08413 22.123 9.0184 21.9758 8.8508 21.4362C8.5728 20.5082 8.4912 19.6371 8.63013 18.9545C8.69546 18.6151 8.72813 18.5701 9.00213 18.4107C9.14506 18.3249 9.33333 18.1899 9.42333 18.1081L9.5908 17.9531L10.3839 17.8631C10.8212 17.8101 11.3116 17.7446 11.4669 17.7119C11.6264 17.6793 11.9777 17.6057 12.2476 17.5526C12.5215 17.4953 12.9103 17.3974 13.1107 17.3319C13.3109 17.2625 13.5928 17.1803 13.74 17.1475C14.0261 17.0822 15.0029 16.9886 15.0356 17.0214C15.0479 17.0337 15.0603 17.6182 15.0563 18.3214C15.0563 19.425 15.044 19.7234 14.95 20.5369C14.7905 21.9309 14.7577 22.3678 14.7168 23.9049C14.68 25.4337 14.6681 25.503 14.4187 25.6829C14.2388 25.8137 14.0549 25.7898 13.5112 25.5486C13.2415 25.4299 12.6731 25.1966 12.2439 25.0249C11.8187 24.8531 11.2136 24.5879 10.9069 24.4367C10.5963 24.2814 10.3427 24.1663 10.3427 24.1786C10.3427 24.1909 10.498 24.3913 10.6901 24.6242C10.8821 24.8573 11.0376 25.0575 11.0376 25.0698C11.0376 25.0821 11.0011 25.0949 10.952 25.0949C10.8784 25.0949 10.8741 25.1029 10.9313 25.1805C10.9681 25.2335 10.9805 25.3151 10.9683 25.401C10.9519 25.5114 10.964 25.5485 11.0456 25.6017C11.0989 25.6385 11.1851 25.7405 11.2383 25.8305C11.2873 25.9162 11.3732 26.0265 11.4263 26.0673C11.4796 26.1082 11.5569 26.2065 11.602 26.2842C11.6428 26.3618 11.7817 26.5047 11.9127 26.6029C12.0433 26.701 12.17 26.8278 12.1944 26.881C12.2189 26.9423 12.338 27.0321 12.4769 27.1017C12.7999 27.2651 13.2736 27.6821 13.3512 27.8659C13.3963 27.9805 13.4865 28.0705 13.7481 28.2422C13.9567 28.3811 14.3243 28.6999 14.7331 29.1047C15.4771 29.8405 15.518 29.8651 16.1231 29.8283C16.5155 29.7998 16.7119 29.7259 16.9449 29.5134C17.0389 29.4275 17.1533 29.3379 17.1943 29.3134C17.2351 29.2889 17.3372 29.1705 17.4149 29.0478C17.4925 28.9211 17.6109 28.7902 17.6723 28.7534C17.844 28.6513 18.1505 28.2174 18.1505 28.0785C18.1505 27.8741 18.2281 27.7438 18.498 27.4905C18.7351 27.2697 18.7845 27.1954 18.9317 26.8317C19.1607 26.2757 19.2419 25.9165 19.3155 25.201C19.4053 24.3181 19.3976 23.2513 19.2955 22.585C19.1279 21.4975 18.4901 18.4682 18.298 17.8631C18.1385 17.3605 17.9873 16.7063 17.9873 16.5182C17.9873 16.4733 18.0727 16.469 18.408 16.4895C18.7147 16.5099 18.9557 16.5021 19.3073 16.4489C19.7243 16.3875 19.8676 16.3835 20.3092 16.4245C20.5912 16.449 20.8323 16.4773 20.8404 16.4895C20.8731 16.5181 21.5028 18.5662 21.6091 18.9831C21.8299 19.8375 21.8341 19.8991 21.8791 22.0493C21.8995 23.1734 21.9196 24.5061 21.9279 25.013C21.936 25.8673 21.9444 25.9611 22.0465 26.3373C22.1773 26.8155 22.3204 27.1265 22.6147 27.5517C22.7333 27.7193 22.9131 28.0135 23.0153 28.2015C23.2197 28.5818 23.4856 28.8962 23.8291 29.1578C24.2787 29.5053 24.716 29.7877 24.9859 29.9103C25.3088 30.0574 25.5701 30.2902 25.8277 30.6539C25.934 30.8011 26.0853 31.0018 26.1671 31.1039C26.2488 31.2062 26.3508 31.3615 26.3959 31.4515C26.4735 31.615 26.498 31.6313 26.9396 31.7622C27.1439 31.8234 27.7079 31.8353 28.0227 31.7822C28.1984 31.7534 28.2643 31.7129 28.5464 31.439C28.9264 31.071 29.1064 30.8137 29.1064 30.6297C29.1064 30.3435 29.1468 30.2577 29.3144 30.1922C29.4208 30.1513 29.4739 30.1025 29.4739 30.0534C29.4739 29.7958 29.2041 28.757 29.0651 28.4871C28.9752 28.3073 27.8023 26.7218 26.8171 25.4423C25.7705 24.0893 25.4024 23.5001 25.1859 22.8623C25.1164 22.6458 24.8551 21.1618 24.6915 20.005C24.5729 19.1751 24.3437 18.3535 23.984 17.4419C23.8613 17.1313 23.7755 16.8782 23.796 16.8782C23.894 16.8782 25.9995 17.4669 26.122 17.5282C26.1997 17.5691 26.5185 17.7402 26.8252 17.9119C27.1319 18.0877 27.4301 18.227 27.4832 18.227C27.5445 18.227 27.8019 18.3701 28.1045 18.5745L28.6239 18.9219L28.8939 18.9013C29.2821 18.8645 29.3552 18.8482 29.5188 18.7338C29.7519 18.5743 29.8911 18.5498 30.0751 18.6357C30.4307 18.8033 30.676 18.8319 30.4595 18.6807C30.1365 18.4558 30.1039 18.3453 30.2919 18.0631C30.5168 17.7198 30.5408 17.6955 30.7737 17.577C31.1457 17.389 31.1705 17.3443 31.2931 16.6738C31.3504 16.3469 31.4279 16.0274 31.4607 15.9621C31.5547 15.7658 31.5344 15.6395 31.3751 15.4883C31.2932 15.4106 31.1581 15.2345 31.0681 15.0995C30.9415 14.9033 30.9051 14.8095 30.9051 14.6665C30.9051 14.507 30.8885 14.4745 30.77 14.4009C30.6777 14.3443 30.5804 14.2963 30.4793 14.2577C30.3036 14.1963 30.0301 13.9063 30.0669 13.8246C30.0826 13.788 30.0976 13.7511 30.1119 13.7139C30.1447 13.6322 29.8133 13.4523 29.4863 13.3746C29.1593 13.297 29.1635 13.2969 29.2207 13.2315C29.2493 13.1947 29.2489 13.0679 29.2244 12.8309C29.1017 11.7109 28.6483 10.9262 27.892 10.5297C27.7285 10.4438 27.5855 10.3579 27.5733 10.3335C27.4956 10.2149 26.5309 9.84688 25.9996 9.73661C25.832 9.70394 25.5004 9.62234 25.2633 9.55288C25.0263 9.48754 24.6628 9.41741 24.4503 9.39288C23.8412 9.33554 23.0196 9.19688 22.7497 9.11101C22.6148 9.07008 22.296 8.99661 22.0384 8.95168C21.7809 8.90261 21.5601 8.84954 21.5477 8.82914C21.5315 8.80461 21.4333 8.80834 21.2984 8.83288C21.1432 8.86154 20.9101 8.86181 20.5423 8.82914C20.252 8.80048 19.5325 8.78381 18.948 8.78781C18.0487 8.79194 17.8033 8.78021 17.3455 8.70661C17.0512 8.65754 16.6548 8.62048 16.4668 8.62048C16.0171 8.61634 14.6921 8.48154 14.9293 8.46101C14.9661 8.46101 15.0887 8.43688 15.2031 8.41234C15.3911 8.37141 15.4036 8.36274 15.3668 8.28101C15.326 8.19514 15.3057 8.19128 14.7295 8.19541C14.2388 8.19541 14.1243 8.20794 14.0875 8.26101C14.0467 8.31421 14.0055 8.31808 13.8256 8.28541C13.6336 8.24461 13.6212 8.23634 13.6825 8.18728C13.7479 8.13821 13.7481 8.12594 13.6951 8.08914C13.6623 8.06874 13.6049 8.04781 13.5681 8.04781C13.5149 8.04781 10.9599 7.79448 9.89706 7.68421C9.68853 7.65968 9.50493 7.63554 9.49266 7.61914C9.4804 7.60688 9.5008 7.59861 9.5376 7.59861C9.57853 7.59861 9.60693 7.58208 9.60693 7.56168C9.60693 7.50034 9.39893 7.48434 9.11266 7.52914C8.9124 7.55781 8.8056 7.55754 8.74013 7.52488C8.66253 7.49208 8.68746 7.48848 8.86333 7.50488C9.2516 7.54568 9.08773 7.45141 8.67893 7.40221C8.45813 7.37368 8.22933 7.34488 8.17213 7.33674C8.10811 7.32563 8.04613 7.30496 7.98826 7.27541C7.94746 7.25088 7.49773 7.17368 6.99093 7.10421C6.484 7.03474 5.9156 6.93208 5.72346 6.87488C5.0612 6.68688 4.45253 6.38021 4.10093 6.06554L3.91666 5.90234L3.98226 5.74674C4.11706 5.42381 4.2888 5.23581 4.59533 5.08861C5.0164 4.88421 5.20866 4.85128 6.03026 4.82674C6.77826 4.81048 6.95426 4.77808 6.8684 4.67994C6.82746 4.62261 6.23906 4.53248 5.94466 4.53248C5.76066 4.53248 5.30266 4.44261 4.8816 4.31994C4.7085 4.26894 4.52815 4.24695 4.34786 4.25488ZM16.1475 8.18861C16.1173 8.18753 16.0871 8.18981 16.0575 8.19541C15.8161 8.23634 15.6775 8.29328 15.5549 8.39541L15.4324 8.49354L15.6287 8.49794C15.8372 8.49794 15.9473 8.45714 16.0987 8.32234C16.1937 8.23648 16.2104 8.19394 16.1475 8.18861ZM23.8491 9.45661C23.9001 9.45354 23.9576 9.46848 24.0659 9.49914C24.1885 9.53594 24.3232 9.55261 24.364 9.54048C24.4049 9.52808 24.4539 9.53608 24.4703 9.56474C24.4907 9.60154 24.4296 9.60581 24.2252 9.58541C24.0453 9.56488 23.9552 9.56861 23.9552 9.59728C23.9552 9.62181 24.0043 9.65061 24.0696 9.66288C24.368 9.72821 24.4172 9.76114 24.1596 9.73661C24.0125 9.72021 23.7916 9.70821 23.6689 9.70408C23.4564 9.70408 23.4444 9.70808 23.4321 9.81034C23.4199 9.90434 23.3912 9.92448 23.1908 9.96541C22.9171 10.0185 22.9541 10.0225 22.7497 9.92848C22.5657 9.83861 22.1607 9.74048 21.6577 9.66288C21.4697 9.63421 21.3761 9.61008 21.4416 9.60594C21.5111 9.60594 21.8872 9.64688 22.2797 9.70408C23.0073 9.80634 23.2115 9.82661 23.1665 9.78168C23.1543 9.76941 22.8355 9.69581 22.4553 9.62221L21.7685 9.48728L22.1691 9.48288C22.5207 9.47888 22.5821 9.49141 22.6884 9.56914C22.7784 9.63448 22.8232 9.64688 22.8559 9.61408C22.8845 9.58554 23.0069 9.57674 23.1991 9.58914C23.4565 9.60954 23.526 9.60181 23.6691 9.52408C23.7528 9.48114 23.7979 9.45968 23.8491 9.45661ZM18.0536 10.1403C18.0739 10.1397 18.0915 10.1433 18.1016 10.1535C18.1181 10.1658 18.1019 10.1943 18.0692 10.2147C17.9916 10.2638 17.9588 10.2641 17.9261 10.2191C17.9077 10.1854 17.9927 10.1425 18.0536 10.1405V10.1403ZM24.7028 10.2603C24.7104 10.2577 24.7239 10.2743 24.7484 10.3091C24.7769 10.3459 24.8381 10.3785 24.8791 10.3785C24.9444 10.3785 24.9489 10.3865 24.8959 10.4191C24.8632 10.4395 24.8263 10.4559 24.814 10.4559C24.7323 10.4478 24.6915 10.3989 24.6915 10.3253C24.6935 10.2845 24.6951 10.2629 24.7028 10.2603ZM19.4341 10.501C19.3524 10.501 19.2955 10.5703 19.2955 10.6685C19.2955 10.6889 19.3891 10.7053 19.5035 10.7053C19.6997 10.7053 19.7083 10.7013 19.6592 10.6359C19.5775 10.5297 19.5281 10.501 19.4341 10.501ZM27.6876 12.9415C27.7163 12.9293 27.786 12.9575 27.8432 12.9983C27.9332 13.0678 27.9331 13.0762 27.8595 13.0721C27.7451 13.0721 27.6141 12.9701 27.6876 12.9414V12.9415Z"/>
</svg>
