<svg viewBox="0 0 32 32" fill="none" xmlns="http://www.w3.org/2000/svg">
<path d="M25.464 14.184C20.3067 11.1213 11.8 10.84 6.876 12.3347C6.08533 12.5747 5.24933 12.128 5.01067 11.3373C4.77067 10.5467 5.216 9.71067 6.008 9.47067C11.66 7.75467 21.0547 8.08667 26.992 11.6107C27.7027 12.0333 27.936 12.9507 27.5147 13.6613C27.0933 14.372 26.1747 14.6067 25.464 14.184ZM25.296 18.7213C24.9333 19.308 24.1667 19.492 23.58 19.132C19.28 16.4893 12.724 15.7227 7.636 17.2667C6.97733 17.4667 6.28 17.0947 6.08 16.436C5.88133 15.776 6.25333 15.0813 6.912 14.88C12.7227 13.1173 19.9467 13.9707 24.8853 17.0067C25.472 17.3667 25.656 18.136 25.296 18.7213ZM23.3373 23.0773C23.0507 23.5493 22.436 23.6973 21.9667 23.4093C18.2093 21.1133 13.48 20.5947 7.91067 21.8667C7.37467 21.9893 6.84 21.6533 6.71733 21.1173C6.59467 20.58 6.92933 20.0453 7.46667 19.9227C13.5613 18.5293 18.7893 19.1293 23.0067 21.7067C23.4773 21.9933 23.6253 22.608 23.3373 23.0773ZM16 0C7.164 0 0 7.164 0 16C0 24.8373 7.164 32 16 32C24.8373 32 32 24.8373 32 16C32 7.164 24.8373 0 16 0Z"/>
</svg>
