<svg viewBox="0 0 32 32" fill="none" xmlns="http://www.w3.org/2000/svg">
<path d="M31.2747 7.71204C30.9147 8.84404 30.4293 9.82938 29.8213 10.724L29.8467 10.684C29.2493 11.6796 28.536 12.8298 27.7067 14.1347C26.9956 15.1649 26.6191 15.6983 26.5773 15.7347C26.3933 15.9654 26.2653 16.248 26.2213 16.5587L26.22 16.568C26.256 16.8507 26.3867 17.0974 26.5773 17.2814L27.1107 17.876C29.964 20.8085 31.5689 22.8298 31.9253 23.94C31.972 24.0627 31.9987 24.204 31.9987 24.352C31.9987 24.6107 31.916 24.8494 31.776 25.0454L31.7787 25.0414C31.544 25.2827 31.216 25.432 30.8533 25.432C30.8133 25.432 30.772 25.4307 30.7333 25.4267H30.7387H27.2307C27.2293 25.4267 27.2267 25.4267 27.224 25.4267C26.7747 25.4267 26.3613 25.2694 26.0373 25.008L26.0413 25.0107C25.5693 24.6227 25.1493 24.2027 24.7733 23.7467L24.7613 23.7307C24.1471 23.0365 23.6022 22.452 23.1267 21.9774C21.5427 20.4716 20.3738 19.7187 19.62 19.7187C19.592 19.716 19.56 19.7147 19.5267 19.7147C19.3067 19.7147 19.1013 19.7827 18.932 19.8987L18.936 19.896C18.7973 20.0694 18.7133 20.2934 18.7133 20.5347C18.7133 20.5827 18.716 20.628 18.7227 20.6747V20.6694C18.6867 21.088 18.6653 21.5747 18.6653 22.0667C18.6653 22.2254 18.668 22.3827 18.672 22.54V22.5174V24.0627C18.6853 24.1254 18.6933 24.1974 18.6933 24.2707C18.6933 24.5934 18.5467 24.8814 18.3173 25.072L18.316 25.0734C17.8 25.3094 17.1973 25.448 16.5613 25.448C16.4253 25.448 16.292 25.4414 16.16 25.4294L16.1773 25.4307C14.0787 25.3907 12.132 24.776 10.4773 23.74L10.524 23.7667C8.50933 22.5427 6.84 20.9494 5.568 19.0667L5.532 19.0107C4.324 17.408 3.19733 15.5974 2.23733 13.688L2.144 13.4827C1.58266 12.4134 1.00133 11.0987 0.499998 9.74671L0.419998 9.50004C0.215998 8.89204 0.0679978 8.18538 0.00666447 7.45338L0.0039978 7.42004C0.0039978 6.74627 0.400442 6.40938 1.19333 6.40938H4.7C4.732 6.40671 4.76933 6.40538 4.808 6.40538C5.13866 6.40538 5.444 6.51871 5.68533 6.70938L5.68266 6.70671C5.94933 6.99871 6.14667 7.35738 6.244 7.75738L6.248 7.77338C6.89333 9.59604 7.57733 11.1267 8.364 12.5934L8.27466 12.4107C8.91733 13.704 9.628 14.8174 10.4387 15.8454L10.408 15.804C11.1191 16.6769 11.6738 17.1134 12.072 17.1134C12.084 17.1147 12.0987 17.1147 12.1147 17.1147C12.312 17.1147 12.484 17.008 12.5773 16.848L12.5787 16.8454C12.6773 16.592 12.7347 16.2974 12.7347 15.9907C12.7347 15.9254 12.732 15.86 12.7267 15.796V15.804V10.632C12.6987 10.0227 12.5493 9.45338 12.3 8.94271L12.3107 8.96804C12.1453 8.61604 11.9467 8.31204 11.7107 8.04138L11.7147 8.04671C11.496 7.82804 11.3467 7.54138 11.3 7.22138L11.2987 7.21338C11.2987 6.98671 11.4027 6.78271 11.5653 6.64938L11.5667 6.64804C11.728 6.50004 11.944 6.41071 12.18 6.41071H12.1907H17.7187C17.748 6.40671 17.7813 6.40538 17.816 6.40538C18.076 6.40538 18.3093 6.52271 18.464 6.70671L18.4653 6.70804C18.6027 6.95871 18.684 7.25871 18.684 7.57604C18.684 7.62671 18.6813 7.67604 18.6773 7.72538V7.71871V14.616C18.6747 14.648 18.6733 14.6854 18.6733 14.7227C18.6733 14.968 18.7413 15.1987 18.8587 15.3947L18.856 15.3894C18.9533 15.5334 19.116 15.6267 19.3 15.6267H19.3013C19.536 15.6107 19.7493 15.5334 19.9293 15.4107L19.9253 15.4134C20.288 15.164 20.6 14.88 20.8707 14.5587L20.876 14.552C21.6853 13.6374 22.432 12.6267 23.0827 11.552L23.1347 11.4587C23.5933 10.6987 24.0893 9.76271 24.5387 8.80138L24.6213 8.60538L25.216 7.41604C25.4227 6.82138 25.9773 6.40271 26.6293 6.40271C26.6547 6.40271 26.68 6.40271 26.7053 6.40404H26.7013H30.2093C31.1569 6.40404 31.5124 6.84004 31.276 7.71204H31.2747Z"/>
</svg>
