<svg viewBox="0 0 32 32" fill="none" xmlns="http://www.w3.org/2000/svg">
<path d="M17.6925 1.16134C17.7262 1.06011 17.8331 0.981369 17.9399 1.00387C18.0243 1.02636 18.058 1.11635 18.0749 1.19508C18.3673 2.49986 18.4686 3.85525 18.2886 5.18814C18.193 4.56388 18.0974 3.94523 18.0074 3.32097C17.9737 2.88229 17.8668 2.44924 17.8049 2.01619C17.5012 3.20286 17.1244 4.38953 16.4608 5.42998C16.3933 5.54808 16.2977 5.64932 16.2752 5.78429C16.0784 8.197 15.8815 10.6097 15.6847 13.028C16.1852 13.253 16.5902 13.6636 16.7926 14.1753C18.3561 12.5275 19.8296 10.7841 21.0725 8.88876C23.9295 8.34323 26.5222 6.98783 29.1936 5.9024C29.9585 6.64477 30.7065 7.40964 31.3982 8.2195C31.6176 8.49507 31.865 8.75378 32 9.0856C31.0327 8.18013 30.0766 7.25216 29.1092 6.34107C27.2758 7.06657 25.6392 8.21387 23.8002 8.92813C23.1478 9.18683 22.4673 9.37242 21.7811 9.51302C21.6518 9.55239 21.4831 9.54114 21.4043 9.67612C21.0444 10.1654 20.7126 10.6772 20.3189 11.144C19.2728 12.6231 18.0974 14.001 17.0232 15.4576C17.0232 15.5026 17.0232 15.5532 17.0288 15.5982C18.3449 15.2158 19.644 14.7996 20.9544 14.4116C21.275 14.3778 21.6012 14.4059 21.9274 14.3891C22.113 14.3666 22.2536 14.5072 22.411 14.5803C23.7664 15.2945 25.2793 15.6376 26.7697 15.9188C27.0621 15.9863 27.3714 16.0088 27.6639 16.0988C27.8551 16.2225 28.0688 16.3406 28.1982 16.5318C28.8449 17.4035 29.4692 18.3484 29.6604 19.4338C29.2948 18.6071 28.7549 17.8647 28.1307 17.2179C28.0069 17.0998 27.9001 16.9367 27.7257 16.8861C25.8698 16.1831 23.9183 15.8119 21.9836 15.3901C21.6405 15.3226 21.3031 15.2102 20.9488 15.1877C20.6788 15.2552 20.4314 15.3789 20.1727 15.4745C18.9804 15.9244 17.7937 16.38 16.5958 16.8186C16.5002 16.8468 16.4945 16.9705 16.4552 17.0492C17.0851 17.1055 17.7206 17.1448 18.3392 17.2742C18.3898 17.2911 18.4798 17.2911 18.4798 17.3698C18.671 18.2134 19.0816 18.9895 19.5259 19.7263C19.8802 20.3224 20.2851 20.8848 20.6563 21.4697C20.7744 21.6666 20.9038 21.8634 20.9488 22.0884C20.9319 22.1165 20.8925 22.184 20.87 22.2121C21.2862 23.1457 21.5449 24.1468 21.6349 25.1647C21.6574 25.3728 21.6743 25.5753 21.7249 25.7777C21.6968 25.7271 21.6518 25.6821 21.6349 25.6259L21.6293 25.5809C21.6124 25.3334 21.5281 25.0916 21.4774 24.8498C21.275 24.1074 21.0556 23.3538 20.6395 22.7014C20.6001 22.5945 20.4482 22.6451 20.3976 22.5495C19.9365 21.9759 19.6665 21.2841 19.3291 20.6374C18.8904 19.7769 18.4855 18.8939 17.9006 18.1234C17.3381 17.9434 16.7757 17.7747 16.2133 17.5948C16.1796 17.6679 16.1515 17.741 16.1234 17.8141C16.3539 17.9041 16.5902 17.9772 16.8207 18.0616C16.5958 19.1639 16.4327 20.2718 16.2246 21.3741C16.1121 21.9196 16.0165 22.4708 15.8253 22.9995C15.769 23.1401 15.7072 23.3031 15.5497 23.3594C15.1841 24.3042 14.7736 25.2322 14.3687 26.1602C13.8794 27.2681 13.3845 28.3704 12.8502 29.4615C12.7152 29.7258 12.5915 29.9957 12.4171 30.2376C13.2045 27.9711 14.1943 25.7777 14.9929 23.5112C14.8804 23.1682 15.0042 22.8082 15.0885 22.4764C15.5047 21.0929 16.1177 19.7769 16.5564 18.399C16.3483 18.3146 16.1459 18.219 15.9378 18.1515C15.561 18.6183 15.3304 19.1864 14.9198 19.625C14.678 19.895 14.4249 20.1706 14.1156 20.3674C13.5813 20.7386 12.9964 21.0367 12.4059 21.3235C11.8097 21.5878 11.163 21.7959 10.505 21.7678C9.97629 21.7228 9.43076 21.526 9.09894 21.0985C8.58153 20.4461 8.37344 19.6138 8.26096 18.8039C8.09787 18.5846 7.90665 18.3765 7.82791 18.1065C7.6367 17.5666 7.76605 16.9311 8.14848 16.5037C8.24971 16.3743 8.39032 16.2956 8.5028 16.1775C8.75588 15.4689 9.18893 14.8334 9.71759 14.2935C9.01458 13.7985 8.35657 13.2305 7.57483 12.8593C6.57938 13.4442 5.65704 14.1416 4.7122 14.7996C3.45804 15.6938 2.17014 16.5712 0.713513 17.1111C0.584161 17.1336 0.595409 17.2742 0.58416 17.3698C0.544792 18.399 0.449184 19.4282 0.398567 20.4574C0.359199 20.8454 0.381696 21.2448 0.291711 21.6272C0.241095 21.8128 0.117366 21.9646 0.00488509 22.1165C-0.017611 21.1716 0.044253 20.2212 0.055501 19.2763C0.122989 18.1684 0.139862 17.0548 0.319831 15.9582C1.17468 15.6601 2.02391 15.3395 2.8394 14.9346C4.40288 14.1922 5.81451 13.1743 7.19802 12.1451C7.55796 12.1226 7.91227 12.2351 8.23847 12.3813C8.71089 12.5781 9.13831 12.8649 9.57136 13.1349C9.83569 13.298 10.0719 13.5061 10.3587 13.6354C10.4543 13.5904 10.5218 13.5061 10.6006 13.4386C9.86381 12.775 9.07082 12.1732 8.38469 11.4533C8.23284 11.3127 8.10911 11.144 7.95164 11.0146C7.01243 10.306 6.09571 9.55802 5.06089 8.98999C4.92029 8.93375 4.76844 8.945 4.62222 8.9225C3.79548 8.83252 2.98 8.66942 2.14764 8.58506C1.90581 8.56819 1.67522 8.5007 1.43339 8.51195C1.19718 8.51757 0.966594 8.42196 0.809121 8.24199C1.484 8.27011 2.15327 8.3601 2.82815 8.40509C3.59302 8.48383 4.36351 8.51757 5.12275 8.60756C5.85388 8.98999 6.53439 9.45678 7.24301 9.87859C7.81667 10.2104 8.39032 10.5647 9.02021 10.7784C9.14956 10.8234 9.28454 10.8515 9.42514 10.8684C9.86381 11.369 10.2406 11.937 10.7693 12.3532C10.9886 12.5163 11.1348 12.7581 11.2023 13.0224C11.7141 12.7019 12.3328 12.6569 12.9233 12.6287C12.6027 11.1946 12.2428 9.77735 11.8716 8.35447C11.8322 8.22512 11.7254 8.14076 11.6523 8.03391C10.9155 7.06657 10.4487 5.92489 9.9313 4.83383C9.60511 4.40078 9.28454 3.95648 9.02021 3.47844C8.95272 3.34909 8.87398 3.21973 8.86836 3.07351C9.32391 3.54593 9.85256 3.93961 10.3137 4.40078C10.4656 4.54701 10.5612 4.73822 10.668 4.91257C11.1461 5.7168 11.5454 6.56041 12.0178 7.36464C12.0966 7.51087 12.2034 7.64022 12.2596 7.7977C12.7489 9.43429 13.3676 11.0315 13.9131 12.6512C14.2281 12.6794 14.5374 12.7243 14.8467 12.7862C15.1729 10.4241 15.4429 8.05078 15.7915 5.69431C15.8815 5.40186 16.0671 5.14315 16.1852 4.86195C16.7645 3.64154 17.1694 2.37613 17.6925 1.16134V1.16134ZM9.0427 16.0706C8.77275 16.1325 8.51967 16.2675 8.3172 16.4587C7.78854 16.9424 7.68169 17.8085 8.08099 18.399C8.47468 19.0401 9.3689 19.2988 10.0438 18.9558C10.7018 18.6521 11.0674 17.8535 10.8593 17.1561C10.6624 16.3912 9.8132 15.8794 9.0427 16.0706ZM12.5296 16.633C12.2597 16.6949 12.0066 16.8299 11.8041 17.0211C11.2754 17.5048 11.1742 18.3652 11.5679 18.9614C11.9616 19.6025 12.8558 19.8612 13.5307 19.5182C14.1887 19.2145 14.5543 18.4159 14.3462 17.7185C14.1493 16.9592 13.3001 16.4418 12.5296 16.633Z"/>
<path d="M10.0663 16.678C10.415 16.5374 10.8087 16.9086 10.6962 17.2629C10.6174 17.6173 10.1225 17.7466 9.88068 17.4767C9.6276 17.2461 9.73446 16.7737 10.0663 16.678V16.678ZM10.37 17.0324C10.2631 17.0942 10.2856 17.2686 10.4037 17.3079C10.5162 17.3585 10.6512 17.2236 10.6006 17.1111C10.5724 17.0211 10.4543 16.9761 10.37 17.0324ZM13.5026 17.3417C13.8513 17.2011 14.2506 17.5666 14.1325 17.9266C14.0537 18.2753 13.5644 18.4102 13.317 18.1459C13.0639 17.9153 13.1707 17.4429 13.5026 17.3417ZM13.8006 17.7016C13.7163 17.7579 13.7163 17.8985 13.8006 17.9547C13.8962 18.0278 14.0425 17.9434 14.0425 17.8253C14.0481 17.7072 13.9019 17.6229 13.8006 17.7016Z"/>
</svg>
